<?xml version="1.0" standalone="no"?>
<!DOCTYPE svg PUBLIC "-//W3C//DTD SVG 20010904//EN"
 "http://www.w3.org/TR/2001/REC-SVG-20010904/DTD/svg10.dtd">
<svg version="1.0" xmlns="http://www.w3.org/2000/svg"
 width="684.000000pt" height="684.000000pt" viewBox="0 0 684.000000 684.000000"
 preserveAspectRatio="xMidYMid meet">
<metadata>
Created by potrace 1.16, written by Peter Selinger 2001-2019
</metadata>
<g transform="translate(0.000000,684.000000) scale(0.100000,-0.100000)"
fill="#F0F2F5" stroke="none">
<rect width="100%" height="100%" fill="#0D1322"/>
<path d="M0 3420 l0 -3420 3420 0 3420 0 0 3420 0 3420 -3420 0 -3420 0 0
-3420z m3455 2636 c20 -13 824 -475 1020 -586 55 -31 204 -116 330 -189 127
-73 374 -216 550 -317 353 -203 355 -204 339 -210 -5 -2 -71 -40 -145 -83 -74
-43 -273 -157 -444 -254 -170 -97 -328 -187 -350 -201 l-40 -24 -55 32 c-30
18 -86 50 -125 71 -38 21 -86 48 -105 60 -19 12 -93 55 -165 95 -71 40 -213
121 -315 180 -217 126 -475 273 -508 289 -25 13 -28 11 -802 -432 -173 -99
-359 -206 -413 -236 l-97 -55 2 -784 3 -784 200 -115 c562 -324 734 -423 885
-510 91 -52 180 -104 198 -115 19 -12 32 -15 30 -8 -2 7 96 69 217 139 121 70
297 171 390 226 94 54 269 155 390 225 121 69 230 132 242 140 20 13 27 12 71
-10 36 -19 526 -299 612 -350 8 -5 74 -41 145 -80 154 -85 172 -97 159 -109
-5 -6 -157 -95 -339 -199 -181 -104 -464 -266 -629 -361 -164 -94 -300 -171
-302 -171 -2 0 -12 -7 -23 -17 -11 -9 -217 -129 -458 -267 -241 -138 -452
-260 -469 -270 l-31 -19 -454 260 c-250 143 -582 333 -739 423 -157 90 -440
252 -630 360 -190 109 -371 212 -403 230 l-57 32 2 1351 3 1352 245 140 c135
78 353 203 485 280 379 218 560 322 705 405 116 66 237 135 760 437 83 48 87
49 115 29z"/>
</g>
</svg>
